<svg xmlns="http://www.w3.org/2000/svg" xmlns:xlink="http://www.w3.org/1999/xlink"><symbol viewBox="0 0 25 25" id="arrow-right" xmlns="http://www.w3.org/2000/svg"><path d="M5.897 12.41h14m-7-7l7 7-7 7" data-stroke="true" fill="none"/></symbol><symbol viewBox="0 0 25 25" id="chevron-left" xmlns="http://www.w3.org/2000/svg"><path d="M15.897 18.41l-6-6 6-6" data-stroke="true" fill="none"/></symbol><symbol viewBox="0 0 25 25" id="chevron-right" xmlns="http://www.w3.org/2000/svg"><path d="M9.897 18.41l6-6-6-6" data-stroke="true" fill="none"/></symbol><symbol viewBox="0 0 24 24" id="instagram" xmlns="http://www.w3.org/2000/svg"><path d="M17 2H7a5 5 0 00-5 5v10a5 5 0 005 5h10a5 5 0 005-5V7a5 5 0 00-5-5z" data-stroke="true" fill="none"/><path d="M16 11.37a4 4 0 11-7.914 1.174A4 4 0 0116 11.37zm1.5-4.87h.017" data-stroke="true" fill="none"/></symbol></svg>